<svg fill="none" xmlns="http://www.w3.org/2000/svg" viewBox="0 0 106 24"><path clip-rule="evenodd" d="M19.28 7.586h-9.052c-2.189 0-3.561 1.55-3.561 3.745v5.92c0 2.195 1.365 3.745 3.562 3.745h9.05c2.197 0 3.564-1.55 3.564-3.745v-5.92c0-2.195-1.367-3.745-3.563-3.745Z" stroke="#ADB5BD" stroke-width="1.5" stroke-linecap="round" stroke-linejoin="round"/><path d="M10.214 12.048h9.075M18.927 7.584 17.342 4.94c-1.136-1.872-3.102-2.503-4.988-1.366L4.605 8.24c-1.879 1.128-2.257 3.164-1.128 5.05l3.061 5.066c.143.245.3.466.481.664v.007" stroke="#ADB5BD" stroke-width="1.5" stroke-linecap="round" stroke-linejoin="round"/><path d="M34.804 8.955h5.193V18.5h-1.661v-7.941h-3.532V18.5h-1.66v-7.941h-1.528V8.955h1.528V8.67c0-2.52 1.393-3.78 4.18-3.78.56 0 1.216.083 1.966.248v1.508c-.84-.102-1.495-.152-1.966-.152-.878 0-1.52.165-1.928.496-.394.33-.592.89-.592 1.68v.286Zm12.49-.248c1.12 0 2.017.356 2.692 1.069.674.7 1.012 1.654 1.012 2.863V18.5h-1.661v-5.765c0-.764-.21-1.362-.63-1.794-.42-.433-1-.65-1.737-.65-.853 0-1.527.268-2.024.802-.496.522-.744 1.305-.744 2.348V18.5H42.54V8.955h1.66v1.375c.663-1.082 1.693-1.623 3.093-1.623Zm10.508 10.041c-1.438 0-2.634-.477-3.589-1.432-.954-.967-1.431-2.163-1.431-3.588 0-1.426.477-2.616 1.431-3.57.955-.967 2.151-1.451 3.59-1.451.941 0 1.787.229 2.538.687.751.446 1.311 1.05 1.68 1.814l-1.393.801a2.814 2.814 0 0 0-1.127-1.221c-.496-.306-1.062-.458-1.699-.458-.954 0-1.756.324-2.405.973-.636.662-.954 1.47-.954 2.425 0 .941.318 1.743.954 2.405.649.649 1.45.973 2.405.973.637 0 1.21-.146 1.718-.439a3.069 3.069 0 0 0 1.165-1.221l1.412.82a4.674 4.674 0 0 1-1.775 1.814 4.91 4.91 0 0 1-2.52.668ZM68.491 8.707c1.12 0 2.017.356 2.691 1.069.675.7 1.012 1.654 1.012 2.863V18.5h-1.66v-5.765c0-.764-.21-1.362-.63-1.794-.42-.433-1-.65-1.738-.65-.853 0-1.527.268-2.023.802-.497.522-.745 1.305-.745 2.348V18.5h-1.66V5.137h1.66v5.193c.662-1.082 1.693-1.623 3.093-1.623Zm15.185 5.784h-7.999c.165.84.554 1.502 1.164 1.986.611.47 1.375.706 2.291.706 1.26 0 2.176-.465 2.75-1.394l1.412.802c-.942 1.438-2.342 2.157-4.2 2.157-1.502 0-2.736-.47-3.703-1.413-.942-.967-1.413-2.17-1.413-3.607 0-1.451.465-2.647 1.394-3.59.929-.954 2.131-1.431 3.608-1.431 1.4 0 2.538.496 3.417 1.489.89.967 1.336 2.15 1.336 3.55 0 .242-.02.49-.057.745Zm-4.697-4.219c-.878 0-1.616.248-2.214.745-.585.496-.948 1.17-1.088 2.023h6.376c-.14-.878-.49-1.559-1.05-2.042-.56-.484-1.234-.726-2.023-.726Zm11.13 8.476c-1.438 0-2.634-.477-3.588-1.432-.955-.967-1.432-2.163-1.432-3.588 0-1.426.477-2.616 1.432-3.57.954-.967 2.15-1.451 3.588-1.451.942 0 1.788.229 2.54.687.75.446 1.31 1.05 1.68 1.814l-1.394.801a2.814 2.814 0 0 0-1.127-1.221c-.496-.306-1.062-.458-1.699-.458-.954 0-1.756.324-2.405.973-.636.662-.954 1.47-.954 2.425 0 .941.318 1.743.954 2.405.65.649 1.45.973 2.405.973.637 0 1.21-.146 1.719-.439.509-.305.897-.712 1.164-1.221l1.413.82a4.673 4.673 0 0 1-1.776 1.814 4.91 4.91 0 0 1-2.52.668Zm9.295-5.173 4.715 4.925h-2.061l-4.353-4.524V18.5h-1.66V5.137h1.66v8.037l4.124-4.219h2.138l-4.563 4.62Z" fill="#ADB5BD"/></svg>
